<?xml version="1.0" encoding="UTF-8" standalone="no"?>
<!-- Created with Inkscape (http://www.inkscape.org/) -->

<svg
   width="31.9624"
   height="32"
   viewBox="0 0 8.4567183 8.4666667"
   version="1.1"
   id="svg1"
   xml:space="preserve"
   xmlns:xlink="http://www.w3.org/1999/xlink"
   xmlns="http://www.w3.org/2000/svg"
   xmlns:svg="http://www.w3.org/2000/svg"><defs
     id="defs1"><linearGradient
       id="linearGradient2"><stop
         style="stop-color:#ce00c2;stop-opacity:1;"
         offset="0.08401282"
         id="stop1" /><stop
         style="stop-color:#5200e7;stop-opacity:1;"
         offset="0.76058769"
         id="stop2" /></linearGradient><linearGradient
       xlink:href="#linearGradient2"
       id="linearGradient19"
       gradientUnits="userSpaceOnUse"
       gradientTransform="matrix(0.05285239,0,0,0.05285239,1313.2878,645.84453)"
       x1="256.94052"
       y1="796.18433"
       x2="416.94052"
       y2="956.37897" /></defs><g
     id="layer1"
     transform="translate(-1326.8677,-687.9248)"><path
       id="path10"
       style="fill:url(#linearGradient19);fill-opacity:1;stroke-width:0.024273"
       d="m 1331.0959,687.92478 a 4.2281865,4.2333323 0 0 0 -4.2282,4.23334 4.2281865,4.2333323 0 0 0 0.1143,0.97767 c 1.0722,1.84206 2.1224,-0.11978 2.9796,-1.60145 0.6304,-1.23834 2.7706,-4.82952 3.8935,0.94758 0.3135,1.61275 1.0702,0.87659 1.3954,0.46296 a 4.2281865,4.2333323 0 0 0 0.074,-0.78676 4.2281865,4.2333323 0 0 0 -4.2282,-4.23334 z m 0.4356,5.5738 c -0.5254,0.0148 -1.061,0.34158 -1.5742,0.79217 -0.441,0.37107 -0.9944,0.94198 -1.9046,0.6561 -0.083,-0.0262 -0.1619,-0.0658 -0.236,-0.11628 a 4.2281865,4.2333323 0 0 0 3.2792,1.56088 4.2281865,4.2333323 0 0 0 3.3216,-1.61387 c -0.022,0.0187 -0.045,0.0366 -0.069,0.0534 -0.4466,0.32336 -0.8804,0.29703 -1.6245,-0.71233 -0.3813,-0.45446 -0.7839,-0.63166 -1.1926,-0.62015 z" /></g></svg>
